<svg width="40" height="40" viewBox="0 0 40 40" fill="none" xmlns="http://www.w3.org/2000/svg">
<path d="M31.6783 18.36C32.0404 18.3603 32.3927 18.2428 32.682 18.0252C32.9713 17.8075 33.1819 17.5016 33.2819 17.1536C33.3818 16.8056 33.3658 16.4346 33.2362 16.0965C33.1065 15.7585 32.8704 15.4719 32.5633 15.28L28.0833 10.8C27.9285 10.6452 27.7447 10.5225 27.5424 10.4388C27.3401 10.3551 27.1233 10.3121 26.9044 10.3121C26.6855 10.3122 26.4687 10.3554 26.2665 10.4393C26.0643 10.5231 25.8806 10.646 25.7258 10.8008C25.5711 10.9557 25.4484 11.1395 25.3647 11.3418C25.281 11.544 25.2379 11.7608 25.238 11.9797C25.2381 12.1987 25.2813 12.4154 25.3651 12.6176C25.449 12.8198 25.5718 13.0036 25.7267 13.1583L27.595 15.025L15.0117 15.025C14.5696 15.025 14.1457 15.2006 13.8332 15.5131C13.5206 15.8257 13.345 16.2496 13.345 16.6917C13.345 17.1337 13.5206 17.5576 13.8332 17.8702C14.1457 18.1827 14.5696 18.3583 15.0117 18.3583L31.6783 18.3583L31.6783 18.36Z" fill="#CFC9C9"/>
<path d="M8.3217 21.64C7.95965 21.6396 7.60734 21.7571 7.31803 21.9748C7.02872 22.1925 6.81815 22.4984 6.71817 22.8464C6.61819 23.1943 6.63423 23.5654 6.76386 23.9034C6.8935 24.2415 7.12968 24.5281 7.4367 24.72L11.9167 29.2C12.2294 29.5125 12.6535 29.688 13.0956 29.6878C13.5377 29.6876 13.9617 29.5119 14.2742 29.1991C14.5867 28.8864 14.7622 28.4623 14.762 28.0202C14.7619 27.5781 14.5861 27.1541 14.2734 26.8416L12.405 24.975L24.9884 24.975C25.4304 24.975 25.8543 24.7994 26.1669 24.4868C26.4794 24.1743 26.655 23.7503 26.655 23.3083C26.655 22.8663 26.4794 22.4424 26.1669 22.1298C25.8543 21.8172 25.4304 21.6416 24.9884 21.6416L8.3217 21.6416L8.3217 21.64Z" fill="#CFC9C9"/>
</svg>
