<svg width="40" height="40" viewBox="0 0 40 40" fill="none" xmlns="http://www.w3.org/2000/svg">
<path d="M18.36 8.32167C18.3603 7.95963 18.2428 7.60731 18.0252 7.318C17.8075 7.02869 17.5016 6.81813 17.1536 6.71814C16.8056 6.61816 16.4346 6.6342 16.0965 6.76384C15.7585 6.89347 15.4719 7.12966 15.28 7.43667L10.8 11.9167C10.6452 12.0715 10.5225 12.2553 10.4388 12.4576C10.3551 12.6599 10.3121 12.8767 10.3121 13.0956C10.3122 13.3145 10.3554 13.5313 10.4393 13.7335C10.5231 13.9357 10.646 14.1194 10.8008 14.2742C10.9557 14.4289 11.1395 14.5516 11.3418 14.6353C11.544 14.719 11.7608 14.7621 11.9797 14.762C12.1987 14.7619 12.4154 14.7187 12.6176 14.6349C12.8198 14.551 13.0036 14.4282 13.1583 14.2733L15.025 12.405L15.025 24.9883C15.025 25.4304 15.2006 25.8543 15.5131 26.1668C15.8257 26.4794 16.2496 26.655 16.6917 26.655C17.1337 26.655 17.5576 26.4794 17.8702 26.1668C18.1827 25.8543 18.3583 25.4304 18.3583 24.9883L18.3583 8.32167L18.36 8.32167Z" fill="#CFC9C9"/>
<path d="M21.64 31.6783C21.6397 32.0404 21.7572 32.3927 21.9749 32.682C22.1925 32.9713 22.4985 33.1819 22.8464 33.2819C23.1944 33.3818 23.5654 33.3658 23.9035 33.2362C24.2415 33.1065 24.5281 32.8703 24.72 32.5633L29.2 28.0833C29.5125 27.7706 29.688 27.3465 29.6879 26.9044C29.6877 26.4623 29.5119 26.0383 29.1992 25.7258C28.8865 25.4133 28.4624 25.2378 28.0203 25.238C27.5782 25.2382 27.1542 25.4139 26.8417 25.7267L24.975 27.595L24.975 15.0117C24.975 14.5696 24.7994 14.1457 24.4869 13.8332C24.1743 13.5206 23.7504 13.345 23.3084 13.345C22.8663 13.345 22.4424 13.5206 22.1299 13.8332C21.8173 14.1457 21.6417 14.5696 21.6417 15.0117L21.6417 31.6783L21.64 31.6783Z" fill="#CFC9C9"/>
</svg>
