<svg width="28" height="20" viewBox="0 0 28 20" fill="none" xmlns="http://www.w3.org/2000/svg">
<g clip-path="url(#clip0_643_679)">
<path fill-rule="evenodd" clip-rule="evenodd" d="M0 0H39.9V1.53906H0V0ZM0 3.07812H39.9V4.61719H0V3.07812ZM0 6.15234H39.9V7.69531H0V6.15234ZM0 9.23047H39.9V10.7695H0V9.23047ZM0 12.3086H39.9V13.8477H0V12.3086ZM0 15.3828H39.9V16.9219H0V15.3828ZM0 18.4609H39.9V20H0V18.4609Z" fill="#BD3D44"/>
<path fill-rule="evenodd" clip-rule="evenodd" d="M0 1.53906H39.9V3.07812H0V1.53906ZM0 4.61719H39.9V6.15234H0V4.61719ZM0 7.69141H39.9V9.23047H0V7.69141ZM0 10.7695H39.9V12.3086H0V10.7695ZM0 13.8477H39.9V15.3867H0V13.8477ZM0 16.9219H39.9V18.4609H0V16.9219Z" fill="white"/>
<path fill-rule="evenodd" clip-rule="evenodd" d="M0 0H15.9592V10.7695H0V0Z" fill="#192F5D"/>
<path fill-rule="evenodd" clip-rule="evenodd" d="M1.32886 0.460938L1.47651 0.886719H1.94409L1.56675 1.14844L1.7103 1.57812L1.32886 1.3125L0.951514 1.57422L1.09507 1.14844L0.713623 0.886719H1.1894L1.32886 0.460938ZM3.99077 0.460938L4.13433 0.886719H4.60601L4.22456 1.14844L4.36812 1.57812L3.99077 1.3125L3.60933 1.57422L3.75288 1.14844L3.37554 0.886719H3.84312L3.99077 0.460938ZM6.64858 0.460938L6.79624 0.886719H7.25972L6.88237 1.14844L7.02593 1.57812L6.64448 1.3125L6.26714 1.57422L6.41069 1.14844L6.02925 0.886719H6.50093L6.64858 0.460938ZM9.3105 0.460938L9.45405 0.886719H9.92573L9.54429 1.14844L9.69194 1.57812L9.3105 1.3125L8.92905 1.57422L9.07671 1.14844L8.69526 0.886719H9.16284L9.3105 0.460938ZM11.9683 0.460938L12.116 0.886719H12.5835L12.2062 1.14844L12.3498 1.57812L11.9683 1.3125L11.591 1.57422L11.7345 1.14844L11.3572 0.886719H11.8248L11.9683 0.460938ZM14.6302 0.460938L14.7738 0.886719H15.2455L14.864 1.14844L15.0117 1.57812L14.6302 1.3125L14.2488 1.57422L14.3964 1.14844L14.015 0.886719H14.4867L14.6302 0.460938ZM2.66187 1.53906L2.80542 1.96484H3.2771L2.89565 2.22656L3.03511 2.65234L2.66597 2.39062L2.28452 2.65234L2.41987 2.22656L2.05073 1.96484H2.51831L2.66187 1.53906ZM5.31968 1.53906L5.46733 1.96484H5.93491L5.55347 2.22656L5.70112 2.65234L5.31968 2.39062L4.93823 2.65234L5.08589 2.22656L4.70444 1.96484H5.17612L5.31968 1.53906ZM7.98159 1.53906L8.12515 1.96484H8.59683L8.21538 2.22656L8.35894 2.65234L7.98159 2.39062L7.60015 2.65234L7.7437 2.22656L7.36636 1.96484H7.83394L7.98159 1.53906ZM10.6394 1.53906L10.7871 1.96484H11.2546L10.8732 2.22656L11.0209 2.65234L10.6394 2.39062L10.2621 2.65234L10.4056 2.22656L10.0242 1.96484H10.5L10.6394 1.53906ZM13.3013 1.53906L13.4449 1.96484H13.9166L13.5351 2.22656L13.6787 2.65234L13.3013 2.39062L12.9199 2.65234L13.0634 2.22656L12.6861 1.96484H13.1537L13.3013 1.53906ZM1.32886 2.61328L1.47651 3.04687H1.94409L1.56675 3.30859L1.7103 3.73437L1.32886 3.46875L0.951514 3.73437L1.09507 3.30469L0.713623 3.04297H1.1894L1.32886 2.61328ZM3.99077 2.61328L4.13433 3.04297H4.60601L4.22456 3.30469L4.36812 3.73047L3.99077 3.46484L3.60933 3.73047L3.75288 3.30078L3.37554 3.03906H3.84312L3.99077 2.61328ZM6.64858 2.61328L6.79624 3.04297H7.25972L6.88237 3.30469L7.02593 3.73047L6.64448 3.46484L6.26714 3.73047L6.41069 3.30078L6.02925 3.03906H6.50093L6.64858 2.61328ZM9.3105 2.61328L9.45405 3.04297H9.92573L9.54429 3.30469L9.69194 3.73047L9.3105 3.46484L8.92905 3.73047L9.07671 3.30078L8.69526 3.03906H9.16284L9.3105 2.61328ZM11.9683 2.61328L12.116 3.04297H12.5835L12.2062 3.30469L12.3498 3.73047L11.9683 3.46484L11.591 3.73047L11.7345 3.30078L11.3572 3.03906H11.8248L11.9683 2.61328ZM14.6302 2.61328L14.7738 3.04297H15.2455L14.864 3.30469L15.0117 3.73047L14.6302 3.46484L14.2488 3.73047L14.3964 3.30078L14.015 3.03906H14.4867L14.6302 2.61328ZM2.66187 3.6914L2.80542 4.11719H3.2771L2.89565 4.3789L3.03921 4.80859L2.66187 4.54297L2.28042 4.80469L2.42397 4.3789L2.04663 4.11719H2.51421L2.66187 3.6914ZM5.31968 3.6914L5.46733 4.11719H5.93491L5.55347 4.3789L5.70112 4.80859L5.31968 4.54297L4.93823 4.80469L5.08589 4.3789L4.70444 4.11719H5.17612L5.31968 3.6914ZM7.98159 3.6914L8.12515 4.11719H8.59683L8.21538 4.3789L8.35894 4.80859L7.98159 4.54297L7.60015 4.80469L7.7437 4.3789L7.36636 4.11719H7.83394L7.98159 3.6914ZM10.6394 3.6914L10.7871 4.11719H11.2546L10.8773 4.3789L11.0209 4.80859L10.6394 4.54297L10.2621 4.80469L10.4056 4.3789L10.0242 4.11719H10.5L10.6394 3.6914ZM13.3013 3.6914L13.4449 4.11719H13.9166L13.5351 4.3789L13.6787 4.80859L13.3013 4.54297L12.9199 4.80469L13.0634 4.3789L12.6861 4.11719H13.1537L13.3013 3.6914ZM1.32886 4.76953L1.47651 5.19531H1.94409L1.56675 5.45703L1.7103 5.88672L1.32886 5.62109L0.951514 5.88281L1.09507 5.45703L0.713623 5.19531H1.1894L1.32886 4.76953ZM3.99077 4.76953L4.13433 5.19531H4.60601L4.22456 5.45703L4.36812 5.88281L3.99077 5.62109L3.60933 5.88281L3.75288 5.45703L3.37554 5.19531H3.84312L3.99077 4.76953ZM6.64858 4.76953L6.79624 5.19531H7.25972L6.88237 5.45703L7.02593 5.88672L6.64448 5.62109L6.26714 5.88281L6.41069 5.45703L6.02925 5.19531H6.50093L6.64858 4.76953ZM9.3105 4.76953L9.45405 5.19531H9.92573L9.54429 5.45703L9.69194 5.88672L9.3105 5.62109L8.92905 5.88281L9.07671 5.45703L8.69526 5.19531H9.16284L9.3105 4.76953ZM11.9683 4.76953L12.116 5.19531H12.5835L12.2062 5.45703L12.3498 5.88672L11.9683 5.62109L11.591 5.88281L11.7345 5.45703L11.3572 5.19531H11.8248L11.9683 4.76953ZM14.6302 4.76953L14.7738 5.19531H15.2455L14.864 5.45703L15.0117 5.88672L14.6302 5.62109L14.2488 5.88281L14.3964 5.45703L14.015 5.19531H14.4867L14.6302 4.76953ZM2.66187 5.84765L2.80542 6.27343H3.2771L2.89565 6.53515L3.03921 6.96093L2.66187 6.69531L2.28042 6.96093L2.42397 6.53125L2.04663 6.26953H2.51421L2.66187 5.84765ZM5.31968 5.84765L5.46733 6.27343H5.93491L5.55347 6.53515L5.70112 6.96093L5.31968 6.69531L4.93823 6.96093L5.08589 6.53125L4.70444 6.26953H5.17612L5.31968 5.84765ZM7.98159 5.84765L8.12515 6.27343H8.59683L8.21538 6.53515L8.35894 6.96093L7.98159 6.69531L7.60015 6.96093L7.7437 6.53125L7.36636 6.26953H7.83394L7.98159 5.84765ZM10.6394 5.84765L10.7871 6.27343H11.2546L10.8773 6.53515L11.0209 6.96093L10.6394 6.69531L10.2621 6.96093L10.4056 6.53125L10.0242 6.26953H10.5L10.6394 5.84765ZM13.3013 5.84765L13.4449 6.27343H13.9166L13.5351 6.53515L13.6787 6.96093L13.3013 6.69531L12.9199 6.96093L13.0634 6.53125L12.6861 6.26953H13.1537L13.3013 5.84765ZM1.32886 6.92187L1.47651 7.35156H1.94409L1.56675 7.61328L1.7103 8.03515L1.32886 7.77343L0.951514 8.03515L1.09507 7.60937L0.713623 7.34765H1.1894L1.32886 6.92187ZM3.99077 6.92187L4.13433 7.35156H4.60601L4.22456 7.61328L4.37222 8.03515L3.99077 7.77343L3.60933 8.03515L3.75698 7.60937L3.37554 7.34765H3.84312L3.99077 6.92187ZM6.64858 6.92187L6.79624 7.35156H7.25972L6.88237 7.61328L7.02593 8.03515L6.64448 7.77343L6.26714 8.03515L6.41069 7.60937L6.02925 7.34765H6.50093L6.64858 6.92187ZM9.3105 6.92187L9.45405 7.35156H9.92573L9.54429 7.61328L9.69194 8.03515L9.3105 7.77343L8.92905 8.03515L9.07671 7.60937L8.69526 7.34765H9.16284L9.3105 6.92187ZM11.9683 6.92187L12.116 7.35156H12.5835L12.2062 7.61328L12.3498 8.03515L11.9683 7.77343L11.591 8.03515L11.7345 7.60937L11.3572 7.34765H11.8248L11.9683 6.92187ZM14.6302 6.92187L14.7738 7.35156H15.2455L14.864 7.61328L15.0117 8.03515L14.6302 7.77343L14.2488 8.03515L14.3964 7.60937L14.015 7.34765H14.4867L14.6302 6.92187ZM2.66187 8L2.80542 8.42578H3.2771L2.89565 8.6875L3.03921 9.11718L2.66187 8.85156L2.28042 9.11328L2.42397 8.6875L2.04663 8.42578H2.51421L2.66187 8ZM5.31968 8L5.46733 8.42578H5.93491L5.55347 8.6875L5.70112 9.11718L5.31968 8.85156L4.93823 9.11328L5.08589 8.6875L4.70444 8.42578H5.17612L5.31968 8ZM7.98159 8L8.12515 8.42578H8.59683L8.21538 8.6875L8.35894 9.11718L7.98159 8.85156L7.60015 9.11328L7.7437 8.6875L7.36636 8.42578H7.83394L7.98159 8ZM10.6394 8L10.7871 8.42578H11.2546L10.8773 8.6875L11.0209 9.11718L10.6394 8.85156L10.2621 9.11328L10.4056 8.6875L10.0242 8.42578H10.5L10.6394 8ZM13.3013 8L13.4449 8.42578H13.9166L13.5351 8.6875L13.6787 9.11718L13.3013 8.85156L12.9199 9.11328L13.0634 8.6875L12.6861 8.42578H13.1537L13.3013 8ZM1.32886 9.07812L1.47651 9.5039H1.94409L1.56675 9.76562L1.7103 10.1914L1.32886 9.92968L0.951514 10.1914L1.09507 9.76171L0.713623 9.5H1.1894L1.32886 9.07812ZM3.99077 9.07812L4.13433 9.5039H4.60601L4.22456 9.76562L4.37222 10.1914L3.99077 9.92968L3.60933 10.1914L3.75698 9.76171L3.37554 9.5H3.84312L3.99077 9.07812ZM6.64858 9.07812L6.79624 9.5039H7.25972L6.89058 9.76562L7.03413 10.1914L6.65269 9.92968L6.27534 10.1914L6.4189 9.76171L6.03745 9.5H6.50913L6.64858 9.07812ZM9.3105 9.07812L9.45405 9.5039H9.92573L9.54429 9.76562L9.69194 10.1914L9.3105 9.92968L8.92905 10.1914L9.07671 9.76171L8.69526 9.5H9.16284L9.3105 9.07812ZM11.9683 9.07812L12.116 9.5039H12.5835L12.2062 9.76562L12.3498 10.1914L11.9683 9.92968L11.591 10.1914L11.7345 9.76171L11.3572 9.5H11.8248L11.9683 9.07812ZM14.6302 9.07812L14.7738 9.5039H15.2455L14.864 9.76562L15.0117 10.1914L14.6302 9.92968L14.2488 10.1914L14.3964 9.76171L14.015 9.5H14.4867L14.6302 9.07812Z" fill="white"/>
</g>
<defs>
<clipPath id="clip0_643_679">
<path d="M0 5C0 2.23858 2.23858 0 5 0H23C25.7614 0 28 2.23858 28 5V15C28 17.7614 25.7614 20 23 20H5C2.23858 20 0 17.7614 0 15V5Z" fill="white"/>
</clipPath>
</defs>
</svg>
